# xmcd
#
# Track frame offsets: 
#        150
#        15666
#        28526
#        40755
#        58851
#        76730
#        98413
#        118586
#        147171
#        163229
#
# Disc length: 2319 seconds
#
# Revision: 0
# Processed by: cddbd v1.4PL0 Copyright (c) Steve Scherf et al.
# Submitted via: ExactAudioCopy v0.90b4
#
DISCID=74090d0a
DTITLE=Grant Lyle and Brotherhood - Its Worth It
DYEAR=2000
DGENRE=Blues
TTITLE0=It's Worth It
TTITLE1=Don't Go No Farther
TTITLE2=Can't Stop Lovin My Baby
TTITLE3=Dig
TTITLE4=Down On Bended knee
TTITLE5=Another Mile
TTITLE6=Found The One
TTITLE7=Traces
TTITLE8=Satellite
TTITLE9=Mellow Down Easy
EXTD=
EXTT0=
EXTT1=
EXTT2=
EXTT3=
EXTT4=
EXTT5=
EXTT6=
EXTT7=
EXTT8=
EXTT9=
PLAYORDER=
